<svg width="32" height="32" viewBox="0 0 32 32" fill="none" xmlns="http://www.w3.org/2000/svg">
<path d="M7.24198 24.4118V24.9118V25.787C7.24198 26.6841 7.97247 27.4146 8.86956 27.4146H26.8667C27.7638 27.4146 28.4943 26.6841 28.4943 25.787V8.89692C28.4943 7.99984 27.7638 7.26935 26.8667 7.26935H24.4699V7.29171C24.4699 7.44367 24.4531 7.5902 24.4237 7.73006L24.4237 7.73009C24.2211 8.69388 23.3661 9.42089 22.3407 9.42089H21.9471C20.9219 9.42089 20.0671 8.69384 19.8642 7.73032C19.8642 7.73031 19.8642 7.73029 19.8642 7.73027L20.3535 7.62725C20.3307 7.51897 20.318 7.40693 20.318 7.29171L7.24198 24.4118ZM7.24198 24.4118H6.74198H4.77583C4.29572 24.4118 3.92043 24.2225 3.70874 23.9434L3.70868 23.9433C3.51912 23.6936 3.45239 23.3555 3.5508 23.0031C3.55081 23.0031 3.55082 23.0031 3.55083 23.003L7.22324 9.86459L7.24169 9.79856V9.72999V8.89692C7.24169 7.99984 7.97218 7.26935 8.86927 7.26935H9.32188M7.24198 24.4118L9.32188 7.26935M9.32188 7.26935V7.29171C9.32188 7.44388 9.33868 7.59049 9.36814 7.73032M9.32188 7.26935H19.818H13.9738V7.29171C13.9738 7.44367 13.957 7.5902 13.9276 7.73006L13.9276 7.73009C13.725 8.69388 12.8701 9.42089 11.8446 9.42089H11.4511C10.4259 9.42089 9.57105 8.69384 9.36814 7.73032M9.36814 7.73032C9.36814 7.73031 9.36813 7.73029 9.36813 7.73027L9.8574 7.62725L9.36814 7.73032ZM7.95795 24.4118H7.45795V24.9118V25.787C7.45795 26.5659 8.09069 27.1986 8.86956 27.1986H26.8664C27.6453 27.1986 28.2781 26.5659 28.2781 25.787V12.0276L27.2965 11.8931L24.1751 23.0613C24.175 23.0613 24.175 23.0613 24.175 23.0614C23.9733 23.7824 23.1283 24.4118 22.2391 24.4118H7.95795ZM7.62645 10.5828H7.24705L7.14491 10.9482L3.75897 23.0612C3.75896 23.0612 3.75894 23.0613 3.75893 23.0614C3.69502 23.2898 3.69741 23.5702 3.87972 23.8118L3.88091 23.8134C4.10523 24.1083 4.48137 24.1958 4.77583 24.1958H22.2391C22.6204 24.1958 22.9963 24.0577 23.2925 23.8612C23.5821 23.669 23.8631 23.3747 23.9669 23.0031C23.9669 23.0031 23.9669 23.0031 23.9669 23.003L27.2614 11.2174L27.4387 10.5828H26.7798H7.62645Z" fill="#EA650F" stroke="#EA650F"/>
<path d="M11.8446 7.72167H11.4511C11.2151 7.72167 11.0217 7.52865 11.0215 7.29187L11.0215 5.12733C11.0215 4.89092 11.2147 4.69781 11.4511 4.69781H11.8446C12.081 4.69781 12.2742 4.89092 12.2742 5.12733V7.29215C12.2742 7.52856 12.081 7.72167 11.8446 7.72167Z" fill="#EA650F" stroke="#EA650F"/>
<path d="M22.341 7.72167H21.9475C21.7111 7.72167 21.5179 7.52856 21.5179 7.29215V5.12733C21.5179 4.89092 21.7111 4.69781 21.9475 4.69781H22.341C22.5774 4.69781 22.7705 4.89092 22.7705 5.12733V7.29215C22.7705 7.52856 22.5774 7.72167 22.341 7.72167Z" fill="#EA650F" stroke="#EA650F"/>
</svg>
