<svg width="24" height="24" viewBox="0 0 24 24" fill="none" xmlns="http://www.w3.org/2000/svg">
<path fill-rule="evenodd" clip-rule="evenodd" d="M9.03774 11.5831V20.7784C9.03774 20.8892 9.15094 21 9.26415 21H12.7736C12.8868 21 13 20.8892 13 20.7784V11.4169H15.5472C15.6604 11.4169 15.7736 11.3061 15.7736 11.1953L16 8.37026C16 8.20408 15.8868 8.0933 15.7736 8.0933H13V6.09914C13 5.65599 13.3962 5.26824 13.8491 5.26824H15.7736C15.8868 5.26824 16 5.15744 16 5.04665V2.22159C16 2.1108 15.8868 2 15.7736 2H12.4906C10.566 2 8.98113 3.55103 8.98113 5.43441V8.14868H7.22641C7.1132 8.14868 7 8.25948 7 8.37026V11.1953C7 11.3061 7.1132 11.4169 7.22641 11.4169H8.98113V11.5831H9.03774Z" fill="#828282"/>
</svg>
