<svg width="24" height="24" viewBox="0 0 24 24" fill="none" xmlns="http://www.w3.org/2000/svg">
<path d="M17.1201 5.89945C16.4665 5.89945 15.9763 6.38966 15.9763 7.04329C15.9763 7.69692 16.4665 8.18717 17.1201 8.18717C17.7737 8.18717 18.264 7.69692 18.264 7.04329C18.264 6.38966 17.7193 5.89945 17.1201 5.89945ZM12 7.37013C9.331 7.37013 7.2067 9.54889 7.2067 12.1634C7.2067 14.8324 9.38547 16.9567 12 16.9567C14.6145 16.9567 16.7933 14.7779 16.7933 12.1634C16.8478 9.49442 14.669 7.37013 12 7.37013ZM12 15.2682C10.3114 15.2682 8.89525 13.9064 8.89525 12.1634C8.89525 10.4749 10.257 9.05866 12 9.05866C13.6885 9.05866 15.1047 10.4204 15.1047 12.1634C15.1047 13.852 13.6885 15.2682 12 15.2682ZM21.75 8.13268C21.75 4.86452 19.1355 2.25 15.8673 2.25H8.13269C4.86453 2.25 2.25 4.86452 2.25 8.13268V15.8673C2.25 19.1355 4.86453 21.75 8.13269 21.75H15.8673C19.1355 21.75 21.75 19.1355 21.75 15.8673V8.13268ZM19.898 15.9218C19.898 18.155 18.1006 19.9525 15.8673 19.9525H8.13269C5.89945 19.9525 4.10195 18.155 4.10195 15.9218V8.18717C4.10195 5.95393 5.89945 4.15643 8.13269 4.15643H15.8673C18.1006 4.15643 19.898 5.95393 19.898 8.18717V15.9218Z" fill="#828282"/>
</svg>
