<svg width="24" height="24" viewBox="0 0 24 24" fill="none" xmlns="http://www.w3.org/2000/svg">
<path d="M21 13.5648V19.9515C21 20.1306 20.8812 20.2499 20.703 20.2499H17.4356C17.2574 20.2499 17.1386 20.1306 17.1386 19.9515V13.9826C17.1386 12.4307 16.604 11.3563 15.1782 11.3563C14.1089 11.3563 13.5149 12.0726 13.2178 12.7889C13.099 13.0276 13.099 13.3857 13.099 13.7439V19.9515C13.099 20.1306 12.9802 20.2499 12.802 20.2499H9.53464C9.35643 20.2499 9.23761 20.1306 9.23761 19.9515C9.23761 18.3996 9.29702 10.6998 9.23761 8.90912C9.23761 8.73005 9.35643 8.61067 9.53464 8.61067H12.802C12.9802 8.61067 13.099 8.73005 13.099 8.90912V10.2819C13.099 10.2819 13.099 10.282 13.099 10.3417V10.2819C13.6337 9.50599 14.5247 8.3719 16.5445 8.3719C19.099 8.31222 21 9.9835 21 13.5648ZM3.53464 20.1903H6.80197C6.98018 20.1903 7.099 20.0709 7.099 19.8918V8.84944C7.099 8.67038 6.98018 8.551 6.80197 8.551H3.53464C3.35642 8.551 3.23761 8.67038 3.23761 8.84944V19.9515C3.29702 20.0709 3.41583 20.1903 3.53464 20.1903Z" fill="#828282"/>
<path d="M7.15842 5.0891C7.15842 6.22318 6.20792 7.17819 5.07921 7.17819C3.9505 7.17819 3 6.22318 3 5.0891C3 3.95502 3.9505 3 5.07921 3C6.20792 3 7.15842 3.89533 7.15842 5.0891Z" fill="#828282"/>
</svg>
