<svg width="24" height="24" viewBox="0 0 24 24" fill="none" xmlns="http://www.w3.org/2000/svg">
<path d="M23.9959 6.97449C23.9959 8.69282 24.0052 10.4112 23.9959 12.1295C23.9588 17.9254 19.6735 22.9225 13.9784 23.842C8.42234 24.7337 3.05184 21.7893 0.918474 16.5786C-1.88272 9.73311 2.00371 2.23747 8.77481 0.444838C9.80439 0.175478 10.9082 0.0454427 11.9749 0.0268662C15.5737 -0.0195752 19.1726 0.00829132 22.7715 0.00829132C23.6063 0.00829132 23.9866 0.389111 23.9866 1.22506C23.9959 3.13844 23.9959 5.06111 23.9959 6.97449Z" fill="#EA650F"/>
<path d="M12.4826 7C10.2528 7 8.4386 8.81673 8.4386 11.0498C8.4386 11.6322 8.55765 12.1883 8.79227 12.7028C9.80337 14.9184 11.7419 17.2576 12.3121 17.9216C12.3548 17.9713 12.4171 17.9999 12.4827 17.9999C12.5482 17.9999 12.6105 17.9713 12.6532 17.9216C13.2232 17.2577 15.1617 14.9186 16.1732 12.7028C16.4079 12.1883 16.5269 11.6322 16.5269 11.0498C16.5266 8.81673 14.7124 7 12.4826 7ZM12.4826 13.1532C11.3243 13.1532 10.3819 12.2095 10.3819 11.0496C10.3819 9.88968 11.3243 8.94596 12.4826 8.94596C13.6408 8.94596 14.5832 9.88968 14.5832 11.0496C14.5833 12.2095 13.6409 13.1532 12.4826 13.1532Z" fill="white"/>
</svg>
