<svg width="24" height="24" viewBox="0 0 24 24" fill="none" xmlns="http://www.w3.org/2000/svg">
<path d="M23.9959 6.97449C23.9959 8.69282 24.0052 10.4112 23.9959 12.1295C23.9588 17.9254 19.6735 22.9225 13.9784 23.842C8.42234 24.7337 3.05184 21.7893 0.918474 16.5786C-1.88272 9.73311 2.00371 2.23747 8.77481 0.444838C9.80439 0.175478 10.9082 0.0454427 11.9749 0.0268662C15.5737 -0.0195752 19.1726 0.00829132 22.7715 0.00829132C23.6063 0.00829132 23.9866 0.389111 23.9866 1.22506C23.9959 3.13844 23.9959 5.06111 23.9959 6.97449Z" fill="#EA650F"/>
<g clip-path="url(#clip0)">
<path d="M17.2887 7.6875H7.67691C7.26498 7.6875 6.99036 7.9625 6.99036 8.375V9.3375L12.4828 12.4313L17.9752 9.40625V8.375C17.9752 7.9625 17.7006 7.6875 17.2887 7.6875Z" fill="white"/>
<path d="M12.1395 13.8063L6.99036 10.9188V16.6251C6.99036 17.0376 7.26498 17.3126 7.67691 17.3126H17.2887C17.7006 17.3126 17.9752 17.0376 17.9752 16.6251V10.9188L12.8261 13.8063C12.6338 13.9026 12.3317 13.9026 12.1395 13.8063Z" fill="white"/>
</g>
<defs>
<clipPath id="clip0">
<rect width="10.9849" height="11" fill="white" transform="translate(6.99036 7)"/>
</clipPath>
</defs>
</svg>
