<svg width="24" height="24" viewBox="0 0 24 24" fill="none" xmlns="http://www.w3.org/2000/svg">
<path d="M23.9959 6.97449C23.9959 8.69282 24.0052 10.4112 23.9959 12.1295C23.9588 17.9254 19.6735 22.9225 13.9784 23.842C8.42234 24.7337 3.05184 21.7893 0.918474 16.5786C-1.88272 9.73311 2.00371 2.23747 8.77481 0.444838C9.80439 0.175478 10.9082 0.0454427 11.9749 0.0268662C15.5737 -0.0195752 19.1726 0.00829132 22.7715 0.00829132C23.6063 0.00829132 23.9866 0.389111 23.9866 1.22506C23.9959 3.13844 23.9959 5.06111 23.9959 6.97449Z" fill="#EA650F"/>
<path d="M17.7173 15.217L15.8032 14.1379C15.1655 13.7743 15.1441 14.013 14.4734 14.7627C14.3109 14.9442 14.0082 15.4216 13.6512 15.3308C12.9054 15.1378 11.5103 13.9899 11.0561 13.4674C10.8402 13.2177 9.90979 12.0248 9.89935 11.6387C9.87738 11.048 11.1099 10.7526 10.71 9.6279L9.85596 7.6171C9.05572 5.6855 6.81755 8.77595 7.001 10.2186C7.47719 13.7743 13.4134 19.5224 16.7226 17.6255C17.4575 17.1937 18.4527 15.6828 17.7167 15.217H17.7173Z" fill="white"/>
</svg>
