<svg width="24" height="24" viewBox="0 0 24 24" fill="none" xmlns="http://www.w3.org/2000/svg">
<path d="M21.7104 5.79001C21.0476 6.09001 20.3848 6.27001 19.6617 6.39001C19.963 6.33001 20.4451 5.73001 20.6861 5.49001C20.9874 5.13001 21.2284 4.71001 21.3489 4.29001C21.3489 4.23001 21.4092 4.23001 21.3489 4.17001C21.2886 4.17001 21.2886 4.17001 21.2284 4.17001C20.4451 4.59001 19.6618 4.89001 18.8182 5.07001C18.7579 5.07001 18.6977 5.07002 18.6374 5.01002C18.5772 4.95002 18.5169 4.83001 18.3964 4.77001C18.0349 4.47001 17.6733 4.23 17.2515 4.05C16.7092 3.81 16.0464 3.75 15.4439 3.75C14.8413 3.81 14.2388 3.92999 13.7568 4.22999C13.2145 4.52999 12.7324 4.89001 12.3709 5.37001C12.0093 5.85001 11.7081 6.39001 11.5273 6.99001C11.4068 7.59001 11.4068 8.12999 11.467 8.72999C11.467 8.84999 11.4671 8.85 11.4068 8.85C8.09278 8.37 5.32103 7.17 3.09159 4.65C2.97108 4.53 2.97109 4.53 2.85058 4.65C1.8865 6.09 2.36854 8.43001 3.57365 9.57001C3.75441 9.75001 3.87491 9.87001 4.05568 9.99001C3.99542 9.99001 3.15185 9.93001 2.42878 9.57001C2.30827 9.51001 2.30828 9.56999 2.24803 9.62999C2.24803 9.80999 2.24803 9.93002 2.24803 10.11C2.42879 11.61 3.45312 12.93 4.89925 13.47C5.08001 13.53 5.26077 13.59 5.44154 13.65C5.14026 13.71 4.77875 13.77 3.87492 13.71C3.75441 13.71 3.69415 13.77 3.7544 13.83C4.41721 15.69 5.92359 16.29 7.06843 16.59C7.18894 16.59 7.36972 16.59 7.49023 16.65C7.1287 17.19 5.86333 17.61 5.26078 17.85C4.17619 18.21 2.97108 18.39 1.82623 18.27C1.64547 18.27 1.58521 18.27 1.52496 18.27C1.4647 18.33 1.52496 18.33 1.58522 18.39C1.82624 18.57 2.06726 18.69 2.30829 18.81C3.03135 19.17 3.81466 19.53 4.59797 19.71C8.69532 20.85 13.335 20.01 16.408 16.95C18.8182 14.55 19.6617 11.25 19.6617 7.95C19.6617 7.83 19.8425 7.77002 19.9028 7.71002C20.5053 7.23002 21.0476 6.68999 21.5297 6.02999C21.6502 5.90999 21.6502 5.78999 21.6502 5.72999C21.7707 5.72999 21.7707 5.79001 21.7104 5.79001Z" fill="#828282"/>
</svg>
