<svg width="32" height="32" viewBox="0 0 32 32" fill="none" xmlns="http://www.w3.org/2000/svg">
<path d="M28.6575 19.2552C30.387 17.8204 31.3333 15.9852 31.3333 14.0499C31.3333 9.7121 26.5691 6.2085 20.7281 6.2085C16.7796 6.2085 13.2881 7.81014 11.4933 10.2126C11.2975 10.2126 11.1344 10.2126 10.9386 10.2126C5.09754 10.1792 0.333328 13.6828 0.333328 18.0206C0.333328 19.956 1.27964 21.7912 3.00912 23.226C2.71543 23.8933 2.29122 24.7609 1.76912 25.495C1.41017 26.0289 1.37754 26.6962 1.73649 27.2301C1.99754 27.6305 2.45438 27.8641 2.91122 27.8641C3.04175 27.8641 3.17228 27.8307 3.3028 27.7974C5.22807 27.2635 6.95754 26.3292 8.16491 25.5951C9.04596 25.7619 9.99228 25.862 10.9386 25.862C14.887 25.862 18.3786 24.227 20.1733 21.8579C20.3691 21.8579 20.5323 21.8579 20.7281 21.8579C21.6744 21.8579 22.5881 21.7578 23.5017 21.591C24.7091 22.3251 26.4712 23.2594 28.3639 23.7932C28.4944 23.8266 28.6249 23.86 28.7554 23.86C29.2123 23.86 29.6691 23.6264 29.9302 23.226C30.2891 22.6921 30.2565 22.0248 29.8975 21.5242C29.3754 20.7902 28.9512 19.9226 28.6575 19.2552ZM10.9386 24.3605C9.99228 24.3605 9.07859 24.2604 8.19754 24.0602C8.00175 24.0268 7.80596 24.0602 7.6428 24.1603C6.76175 24.7275 4.96701 25.7619 3.04175 26.2958C3.75964 25.228 4.31438 23.9601 4.57543 23.2594C4.70596 22.9257 4.60807 22.5586 4.31438 22.3584C2.6828 21.1572 1.80175 19.6223 1.80175 18.0206C1.80175 14.517 5.8807 11.6808 10.906 11.6808C15.9312 11.6808 20.0102 14.517 20.0102 18.0206C20.0102 21.5242 15.9639 24.3605 10.9386 24.3605ZM24.0239 20.1562C23.8933 20.0894 23.7628 20.0561 23.6323 20.0561C23.567 20.0561 23.5344 20.0561 23.4691 20.0894C22.686 20.2229 21.8702 20.323 21.0544 20.3564C21.3481 19.6223 21.5439 18.8548 21.5439 18.0206C21.5439 14.2835 18.0196 11.1803 13.2881 10.3794C14.9523 8.7778 17.6607 7.71004 20.7281 7.71004C25.7533 7.71004 29.8323 10.5463 29.8323 14.0499C29.8323 15.6515 28.9512 17.2198 27.3196 18.3877C27.0586 18.5879 26.9281 18.9549 27.0586 19.2886C27.3196 19.956 27.8744 21.2573 28.5923 22.3251C26.6996 21.7578 24.9049 20.7234 24.0239 20.1562Z" fill="#EA650F"/>
<path d="M15.2786 15.3513H6.5986C6.17438 15.3513 5.84807 15.685 5.84807 16.1188C5.84807 16.5526 6.17438 16.8862 6.5986 16.8862H15.2786C15.7028 16.8862 16.0291 16.5526 16.0291 16.1188C16.0291 15.685 15.7028 15.3513 15.2786 15.3513Z" fill="#EA650F"/>
<path d="M15.2786 19.1886H6.5986C6.17438 19.1886 5.84807 19.5223 5.84807 19.9561C5.84807 20.3898 6.17438 20.7235 6.5986 20.7235H15.2786C15.7028 20.7235 16.0291 20.3898 16.0291 19.9561C16.0291 19.5223 15.7028 19.1886 15.2786 19.1886Z" fill="#EA650F"/>
</svg>
